<svg xmlns="http://www.w3.org/2000/svg" width="132.812" height="39" viewBox="0 0 132.812 39">
    <defs>
        <style>
            .cls-1{fill:#fff}
        </style>
    </defs>
    <g id="hasura_logo_horizontal_white" transform="translate(-3.568 -1.402)">
        <g id="Group_3" data-name="Group 3" transform="translate(3.568 1.402)">
            <g id="Group_1" data-name="Group 1" transform="translate(46.846 12.679)">
                <path id="Path_1" d="M103.221 36.148h-2.576a.722.722 0 0 1-.707-.707v-8.134a.722.722 0 0 0-.707-.707h-2.224a.722.722 0 0 0-.707.707v20.561a.722.722 0 0 0 .707.707h2.223a.722.722 0 0 0 .707-.707v-7.982a.722.722 0 0 1 .707-.707h2.576a.723.723 0 0 1 .707.707v8.032a.722.722 0 0 0 .707.707h2.223a.722.722 0 0 0 .707-.707V27.307a.722.722 0 0 0-.707-.707h-2.223a.722.722 0 0 0-.707.707v8.083a.734.734 0 0 1-.706.758z" class="cls-1" data-name="Path 1" transform="translate(-96.3 -26.549)"/>
                <path id="Path_2" d="M129.032 27.206l-3.637 20.561a.709.709 0 0 0 .657.808h2.223a.626.626 0 0 0 .657-.606l.606-3.738a.7.7 0 0 1 .657-.606h2.829a.626.626 0 0 1 .657.606l.657 3.789a.7.7 0 0 0 .657.606h2.324a.656.656 0 0 0 .657-.859l-3.789-20.561a.7.7 0 0 0-.657-.606h-3.789a.749.749 0 0 0-.709.606zm3.385 13.337h-1.465a.68.68 0 0 1-.657-.808l.657-7.578a.687.687 0 0 1 1.364 0l.707 7.578a.647.647 0 0 1-.606.808z" class="cls-1" data-name="Path 2" transform="translate(-110.694 -26.549)"/>
                <path id="Path_3" d="M163.37 35.8h-2.47a.618.618 0 0 1-.707-.707v-4.754a.639.639 0 0 1 .707-.707h1.465a.618.618 0 0 1 .707.707v2.223a.723.723 0 0 0 .707.707h2.321a.722.722 0 0 0 .707-.707v-2.778c0-2.172-1.162-3.284-3.486-3.284h-3.334c-2.324 0-3.486 1.111-3.486 3.284v5.658c0 2.172 1.162 3.334 3.435 3.334h2.475a.618.618 0 0 1 .707.707v5.254a.618.618 0 0 1-.707.707h-1.465a.618.618 0 0 1-.707-.707v-2.223a.723.723 0 0 0-.707-.707h-2.324a.722.722 0 0 0-.707.707v2.778c0 2.172 1.162 3.284 3.486 3.284h3.284c2.324 0 3.486-1.111 3.486-3.284V39.18c.049-2.273-1.164-3.38-3.387-3.38z" class="cls-1" data-name="Path 3" transform="translate(-126.088 -26.5)"/>
                <path id="Path_4" d="M190.423 44.786a.618.618 0 0 1-.707.707h-1.97a.618.618 0 0 1-.707-.707V27.307a.722.722 0 0 0-.707-.707h-2.324a.722.722 0 0 0-.707.707v17.934c0 2.172 1.162 3.284 3.486 3.284h3.789c2.324 0 3.486-1.111 3.486-3.284V27.307a.723.723 0 0 0-.707-.707h-2.172a.722.722 0 0 0-.707.707l-.051 17.479z" class="cls-1" data-name="Path 4" transform="translate(-139.35 -26.549)"/>
                <path id="Path_5" d="M223.06 36.6v-6.716c0-2.172-1.162-3.284-3.486-3.284h-6.567a.722.722 0 0 0-.707.707v20.561a.723.723 0 0 0 .707.707h2.223a.722.722 0 0 0 .707-.707v-7.224a.722.722 0 0 1 .707-.707.849.849 0 0 1 .657.455l2.88 7.729a.849.849 0 0 0 .657.455h2.425a.675.675 0 0 0 .657-.909l-2.778-7.174a.728.728 0 0 1 .4-.909 3.256 3.256 0 0 0 1.518-2.984zm-3.688-6.214v5.759a.639.639 0 0 1-.707.707h-2.021a.722.722 0 0 1-.707-.707v-5.756a.722.722 0 0 1 .707-.707h2.021a.639.639 0 0 1 .708.707z" class="cls-1" data-name="Path 5" transform="translate(-153.699 -26.549)"/>
                <path id="Path_6" d="M249.577 26.6h-3.789a.626.626 0 0 0-.657.606l-3.637 20.561a.709.709 0 0 0 .657.808h2.223a.626.626 0 0 0 .657-.606l.606-3.738a.7.7 0 0 1 .657-.606h2.829a.626.626 0 0 1 .657.606l.657 3.789a.7.7 0 0 0 .657.606h2.324a.656.656 0 0 0 .657-.859l-3.789-20.561a.749.749 0 0 0-.709-.606zm-1.162 13.943h-1.364a.68.68 0 0 1-.657-.808l.657-6.921a.687.687 0 0 1 1.364 0l.707 6.921a.716.716 0 0 1-.706.808z" class="cls-1" data-name="Path 6" transform="translate(-168.143 -26.549)"/>
            </g>
            <g id="Group_2" data-name="Group 2">
                <path id="Path_7" d="M36.219 14.232c1.111-2.677 1.111-8.132-.354-12.326a.829.829 0 0 0-1.566.3v.3c-.253 3.991-1.718 6.163-3.89 7.224a1.4 1.4 0 0 1-1.263-.1 16.63 16.63 0 0 0-17.782 0 1.244 1.244 0 0 1-1.111.1C8.03 8.928 6.514 6.5 6.262 2.462v-.3a.831.831 0 0 0-1.566-.3c-1.465 4.243-1.414 9.7-.354 12.377a5.988 5.988 0 0 1 .1 4.193 15.626 15.626 0 0 0-.859 5.557A17.082 17.082 0 0 0 20.053 40.4a16.691 16.691 0 0 0 16.014-21.975 5.991 5.991 0 0 1 .152-4.193zM20.053 36.41a12.682 12.682 0 1 1 12.882-12.933A12.721 12.721 0 0 1 20.053 36.41z" class="cls-1" data-name="Path 7" transform="translate(-3.568 -1.402)"/>
                <path id="Path_8" d="M33.354 37.667l-2.981-4.6a1.62 1.62 0 0 0-2.223-.505 1.658 1.658 0 0 0-.758 1.364 1.7 1.7 0 0 0 .253.859l2.021 3.132a.686.686 0 0 1-.051.758l-3.132 3.435a1.6 1.6 0 0 0 .1 2.273 1.765 1.765 0 0 0 1.111.4 1.644 1.644 0 0 0 1.162-.505l2.324-2.728a.4.4 0 0 1 .657.051l1.667 2.374a.991.991 0 0 0 .455.455 1.6 1.6 0 0 0 1.819.051 1.658 1.658 0 0 0 .758-1.364 1.7 1.7 0 0 0-.253-.859z" class="cls-1" data-name="Path 8" transform="translate(-14.697 -16.703)"/>
            </g>
        </g>
    </g>
</svg>
