<svg xmlns="http://www.w3.org/2000/svg" width="49.194" height="12.69" viewBox="0 0 49.194 12.69">
    <defs>
        <style>
            .cls-1{fill:#fff}
        </style>
    </defs>
    <path id="Path_5845" d="M2.952-1.278h4.5V0H1.314v-12.69h1.638zm7.812-10.08v4.338h4.824v1.26h-4.824v4.428h5.364V0h-7v-12.69h7v1.332zm14.9 8.424h-5.58L19.026 0h-1.764l4.7-12.456h1.854L28.494 0H26.73zM25.2-4.212l-2.322-6.408-2.322 6.408zM36.882 0L33.57-5.184h-1.782V0H30.15v-12.69h4.176a4.52 4.52 0 0 1 3.24 1.035 3.626 3.626 0 0 1 1.08 2.745 3.551 3.551 0 0 1-.864 2.493 4.033 4.033 0 0 1-2.5 1.179L38.736 0zm-5.094-6.372h2.394q2.79 0 2.79-2.448t-2.79-2.448h-2.394zM50.508 0H48.87l-6.588-10.026V0h-1.638v-12.69h1.638L48.87-2.646V-12.69h1.638z" class="cls-1" data-name="Path 5845" transform="translate(-1.314 12.69)"/>
</svg>
